<svg width="85" height="134" viewBox="0 0 85 134" fill="none" xmlns="http://www.w3.org/2000/svg">
<path d="M68.4695 112.541C61.069 107.568 54.1522 101.91 47.8105 95.6425C41.4363 89.3048 37.1572 83.6052 37.5924 83.176C38.0276 82.7467 43.122 87.5499 49.8455 93.0349C56.5505 98.5138 63.5337 103.643 70.767 108.403C75.3181 111.424 77.8695 113.082 79.233 114.235L78.7947 112.134L77.5851 107.027C76.7834 103.763 76.0715 100.807 75.5134 98.3087C74.3847 93.3161 73.884 90.148 74.3709 89.9983C74.8578 89.8486 76.2559 92.743 78.0284 97.5896C78.9124 100.007 79.8996 102.898 80.9132 106.162C81.456 107.775 81.9017 109.519 82.3687 111.327C82.5917 112.242 82.8232 113.182 83.0168 114.177C83.1244 114.791 83.7383 117.54 82.1903 118.527C82.0084 118.659 81.8478 118.812 81.649 118.935L81.1456 119.204C80.8789 119.294 80.663 119.366 80.4473 119.524C79.9775 119.682 79.5543 119.895 79.1268 120.053C78.2505 120.348 77.4124 120.63 76.5869 120.908C74.9359 121.463 73.314 121.811 71.7811 122.171C68.7111 122.879 65.9286 123.392 63.5779 123.759C58.8723 124.48 55.8938 124.577 55.7693 124.039C55.6449 123.502 58.3918 122.422 62.8878 120.994C65.1443 120.305 67.8158 119.505 70.7878 118.589C72.2482 118.098 73.8148 117.67 75.3938 117.153L75.9145 116.977C73.3567 115.656 70.8818 114.18 68.5034 112.558" fill="#2A2A2A"/>
<path d="M33.3628 78.3794C32.7882 78.9404 30.8736 77.7043 29.1724 75.5482C27.4713 73.392 24.7458 68.6541 25.3969 68.1522C26.048 67.6503 29.6609 71.5383 31.3491 73.614C33.0373 75.6897 33.9502 77.8142 33.3628 78.3794Z" fill="#2A2A2A"/>
<path d="M21.7287 62.7987C21.2213 63.1815 19.5089 61.5381 17.9976 59.0636C16.4862 56.5891 14.1661 51.3753 14.7372 51.0559C15.3083 50.7364 18.4277 55.3843 19.9304 57.7911C21.433 60.1978 22.253 62.4243 21.7415 62.8368" fill="#2A2A2A"/>
<path d="M12.5296 46.6378C12.1108 46.8636 10.6941 44.9227 9.48306 42.2482C8.27197 39.5736 6.47649 34.0703 6.9421 33.8995C7.40771 33.7286 9.82511 38.8955 11.0529 41.4937C12.2807 44.0919 12.9484 46.412 12.5339 46.6505" fill="#2A2A2A"/>
<path d="M3.91573 23.0983C4.69502 25.9181 5.21863 28.2302 4.91383 28.3328C4.60904 28.4353 3.59429 26.2603 2.7979 23.3896C2.30613 21.6277 1.90779 19.841 1.60455 18.037C1.33379 16.9678 1.2574 15.8585 1.37904 14.7622C1.85785 15.7463 2.20832 16.7877 2.42185 17.861L3.92417 23.0813" fill="#2A2A2A"/>
</svg>
