<svg width="18" height="18" viewBox="0 0 18 18" fill="none" xmlns="http://www.w3.org/2000/svg">
<g clip-path="url(#clip0_1_312)">
<path d="M12.3899 14.5V9.56203H7.29226C7.14308 9.56203 7 9.50277 6.89451 9.39728C6.78902 9.29179 6.72976 9.14872 6.72976 8.99953C6.72976 8.85035 6.78902 8.70727 6.89451 8.60179C7 8.4963 7.14308 8.43703 7.29226 8.43703H12.3899V3.39062C12.3893 2.86865 12.1817 2.36822 11.8127 1.99913C11.4436 1.63003 10.9431 1.42243 10.4212 1.42188H5.96875C5.44678 1.42243 4.94634 1.63003 4.57725 1.99913C4.20816 2.36822 4.00056 2.86865 4 3.39062V14.5C4.00056 15.022 4.20816 15.5224 4.57725 15.8915C4.94634 16.2606 5.44678 16.4682 5.96875 16.4688H10.4212C10.9431 16.4682 11.4436 16.2606 11.8127 15.8915C12.1817 15.5224 12.3893 15.022 12.3899 14.5ZM15.5318 9.56203L13.6798 11.4144C13.5787 11.5208 13.5233 11.6624 13.5251 11.8091C13.527 11.9557 13.5861 12.0959 13.6898 12.1996C13.7936 12.3033 13.9337 12.3624 14.0804 12.3643C14.2271 12.3662 14.3687 12.3107 14.475 12.2097L17.2875 9.39715C17.3929 9.29167 17.4521 9.14865 17.4521 8.99953C17.4521 8.85041 17.3929 8.7074 17.2875 8.60192L14.475 5.78942C14.3687 5.68838 14.2271 5.63288 14.0804 5.63476C13.9337 5.63664 13.7936 5.69574 13.6898 5.79947C13.5861 5.90319 13.527 6.04334 13.5251 6.19001C13.5233 6.33669 13.5787 6.4783 13.6798 6.58465L15.5318 8.43703H12.3899V9.56203H15.5318Z" fill="#2A2A2A"/>
</g>
<defs>
<clipPath id="clip0_1_312">
<rect width="18" height="18" fill="white"/>
</clipPath>
</defs>
</svg>
