<svg width="24" height="24" viewBox="0 0 24 24" fill="none" xmlns="http://www.w3.org/2000/svg">
<g clip-path="url(#clip0_1_344)">
<path d="M4.47804 2.4043C4.2133 2.3274 3.92771 2.40193 3.73432 2.5984C3.54093 2.79487 3.47091 3.0816 3.55198 3.3451L5.98426 11.25H14.5C14.9142 11.25 15.25 11.5858 15.25 12C15.25 12.4142 14.9142 12.75 14.5 12.75H5.98427L3.55207 20.6546C3.471 20.9181 3.54102 21.2049 3.73441 21.4013C3.92781 21.5978 4.2134 21.6723 4.47814 21.5954C11.1767 19.6494 17.3974 16.5814 22.9233 12.6087C23.1193 12.4678 23.2355 12.2412 23.2355 11.9998C23.2355 11.7583 23.1193 11.5317 22.9233 11.3908C17.3974 7.41817 11.1767 4.35021 4.47804 2.4043Z" fill="white"/>
</g>
<defs>
<clipPath id="clip0_1_344">
<rect width="24" height="24" fill="white"/>
</clipPath>
</defs>
</svg>
