<svg width="18" height="18" viewBox="0 0 18 18" fill="none" xmlns="http://www.w3.org/2000/svg">
<g clip-path="url(#clip0_1_332)">
<path fill-rule="evenodd" clip-rule="evenodd" d="M7.36175 1.85302C6.98432 2.17816 6.79475 2.68964 6.43538 4.35337C6.18687 5.50372 5.78053 6.9583 5.53221 7.58576L5.0812 8.72661L3.6656 8.82168L2.25 8.91675V11.6738V14.4308L3.25033 14.4884C4.01641 14.5324 4.27728 14.4768 4.36399 14.2508C4.45278 14.0196 4.79275 13.9553 5.93056 13.9547C7.07501 13.9542 7.52527 13.8684 8.0493 13.5505C8.41532 13.3286 8.77887 13.0508 8.85739 12.9333C8.96292 12.7751 9.03708 12.7751 9.14261 12.9333C9.22113 13.0508 9.58468 13.3286 9.9507 13.5505C10.4747 13.8684 10.925 13.9542 12.0694 13.9547C13.2072 13.9553 13.5472 14.0196 13.636 14.2508C13.7227 14.4768 13.9836 14.5324 14.7497 14.4884L15.75 14.4308V11.6738V8.91675L14.3344 8.82168L12.9188 8.72661L12.4678 7.58576C12.2195 6.9583 11.8131 5.50372 11.5646 4.35337C11.002 1.74901 10.7331 1.44421 9 1.44421C8.08295 1.44421 7.73556 1.53092 7.36175 1.85302ZM8.42958 7.12505V11.7031L7.8738 12.2589C7.35737 12.7753 7.2161 12.8146 5.87732 12.8146H4.43662V11.3886C4.43662 10.0118 4.4524 9.96252 4.89087 9.96252C5.14071 9.96252 5.52232 9.81288 5.73889 9.62978C6.23402 9.21147 7.1697 6.63829 7.57299 4.58629C7.95099 2.66378 7.98864 2.54703 8.23354 2.54703C8.36284 2.54703 8.42958 4.10695 8.42958 7.12505ZM10.3747 4.36725C10.8297 6.63468 11.812 9.34247 12.3043 9.6872C12.5205 9.83874 12.8922 9.96252 13.1304 9.96252C13.5425 9.96252 13.5634 10.0314 13.5634 11.3886V12.8146H12.1227C10.7839 12.8146 10.6426 12.7753 10.1262 12.2589L9.57042 11.7031V7.10927C9.57042 3.5814 9.62423 2.53334 9.8022 2.59266C9.9296 2.63507 10.1872 3.43366 10.3747 4.36725Z" fill="#2A2A2A"/>
</g>
<defs>
<clipPath id="clip0_1_332">
<rect width="18" height="18" fill="white" transform="translate(18) rotate(90)"/>
</clipPath>
</defs>
</svg>
