<svg width="177" height="177" viewBox="0 0 177 177" fill="none" xmlns="http://www.w3.org/2000/svg">
<g clip-path="url(#clip0_1_354)">
<path fill-rule="evenodd" clip-rule="evenodd" d="M88.5 177C137.377 177 177 137.377 177 88.5C177 39.6228 137.377 0 88.5 0C66.5712 0 58.2357 26.3019 42.775 39.5105C23.7752 55.7427 0 61.5516 0 88.5C0 137.377 39.6228 177 88.5 177Z" fill="#F2F2F2"/>
<g filter="url(#filter0_f_1_354)">
<path d="M135.7 59H59C56.5561 59 54.575 60.694 54.575 62.7837V142.241C54.575 144.331 56.5561 146.025 59 146.025H135.7C138.144 146.025 140.125 144.331 140.125 142.241V62.7837C140.125 60.694 138.144 59 135.7 59Z" fill="#EBEBEB"/>
</g>
<path d="M51.625 59C51.625 52.483 56.908 47.2 63.425 47.2H119.475C125.992 47.2 131.275 52.483 131.275 59V122.425C131.275 128.942 125.992 134.225 119.475 134.225H63.425C56.908 134.225 51.625 128.942 51.625 122.425V59Z" fill="white"/>
<path fill-rule="evenodd" clip-rule="evenodd" d="M124.875 129.606C126.397 128.253 126.534 125.922 125.181 124.4L113.381 111.125C112.028 109.603 109.697 109.466 108.175 110.819C106.653 112.172 106.516 114.503 107.869 116.025L119.669 129.3C121.022 130.822 123.353 130.959 124.875 129.606Z" fill="#696969"/>
<path fill-rule="evenodd" clip-rule="evenodd" d="M97.35 80.3875C88.7965 80.3875 81.8625 87.3214 81.8625 95.875C81.8625 104.428 88.7965 111.362 97.35 111.362C105.904 111.362 112.838 104.428 112.838 95.875C112.838 87.3214 105.904 80.3875 97.35 80.3875ZM74.4875 95.875C74.4875 83.2483 84.7234 73.0125 97.35 73.0125C109.977 73.0125 120.213 83.2483 120.213 95.875C120.213 108.502 109.977 118.737 97.35 118.737C84.7234 118.737 74.4875 108.502 74.4875 95.875Z" fill="#696969"/>
</g>
<defs>
<filter id="filter0_f_1_354" x="38.35" y="42.775" width="118" height="119.475" filterUnits="userSpaceOnUse" color-interpolation-filters="sRGB">
<feFlood flood-opacity="0" result="BackgroundImageFix"/>
<feBlend mode="normal" in="SourceGraphic" in2="BackgroundImageFix" result="shape"/>
<feGaussianBlur stdDeviation="8.1125" result="effect1_foregroundBlur_1_354"/>
</filter>
<clipPath id="clip0_1_354">
<rect width="177" height="177" fill="white"/>
</clipPath>
</defs>
</svg>
