<svg width="177" height="177" viewBox="0 0 177 177" fill="none" xmlns="http://www.w3.org/2000/svg">
<g clip-path="url(#clip0_1_352)">
<path fill-rule="evenodd" clip-rule="evenodd" d="M88.5 177C137.377 177 177 137.377 177 88.5C177 39.6228 137.377 0 88.5 0C66.5712 0 58.2357 26.3019 42.775 39.5105C23.7752 55.7427 0 61.5516 0 88.5C0 137.377 39.6228 177 88.5 177Z" fill="#F2F2F2"/>
<g filter="url(#filter0_f_1_352)">
<path d="M141.6 57.525H64.9C62.4561 57.525 60.475 59.219 60.475 61.3087V140.766C60.475 142.856 62.4561 144.55 64.9 144.55H141.6C144.044 144.55 146.025 142.856 146.025 140.766V61.3087C146.025 59.219 144.044 57.525 141.6 57.525Z" fill="#EBEBEB"/>
</g>
<path d="M51.625 59C51.625 52.483 56.908 47.2 63.425 47.2H119.475C125.992 47.2 131.275 52.483 131.275 59V122.425C131.275 128.942 125.992 134.225 119.475 134.225H63.425C56.908 134.225 51.625 128.942 51.625 122.425V59Z" fill="white"/>
<path fill-rule="evenodd" clip-rule="evenodd" d="M138.334 64.6312C140.112 66.3081 140.194 69.1086 138.517 70.8864L100.569 111.116C98.892 112.894 96.0914 112.976 94.3137 111.299C92.5359 109.622 92.4542 106.821 94.1311 105.043L132.079 64.8137C133.756 63.036 136.557 62.9542 138.334 64.6312Z" fill="#696969"/>
</g>
<defs>
<filter id="filter0_f_1_352" x="44.25" y="41.3" width="118" height="119.475" filterUnits="userSpaceOnUse" color-interpolation-filters="sRGB">
<feFlood flood-opacity="0" result="BackgroundImageFix"/>
<feBlend mode="normal" in="SourceGraphic" in2="BackgroundImageFix" result="shape"/>
<feGaussianBlur stdDeviation="8.1125" result="effect1_foregroundBlur_1_352"/>
</filter>
<clipPath id="clip0_1_352">
<rect width="177" height="177" fill="white"/>
</clipPath>
</defs>
</svg>
