<svg width="24" height="24" viewBox="0 0 24 24" fill="none" xmlns="http://www.w3.org/2000/svg">
<g clip-path="url(#clip0_1_303)">
<path d="M19.3428 5.56641C19.4453 5.9435 19.5 6.34029 19.5 6.74986L19.5 17.2499C19.5 17.6594 19.4453 18.0562 19.3428 18.4333C20.3255 17.9406 21 16.924 21 15.7499L21 8.24986C21 7.0757 20.3255 6.0591 19.3428 5.56641Z" fill="#CFCFCF"/>
<path d="M12 2.25C13.6569 2.25 15 3.59315 15 5.25L15 18.75C15 20.4069 13.6569 21.75 12 21.75L6 21.75C4.34314 21.75 3 20.4069 3 18.75L3 5.25C3 3.59315 4.34315 2.25 6 2.25L12 2.25Z" fill="#CFCFCF"/>
<path d="M16.5 5.24986C16.5 4.84029 16.4453 4.4435 16.3428 4.06641C17.3255 4.5591 18 5.5757 18 6.74986L18 17.2499C18 18.424 17.3255 19.4406 16.3428 19.9333C16.4453 19.5562 16.5 19.1594 16.5 18.7499L16.5 5.24986Z" fill="#CFCFCF"/>
</g>
<defs>
<clipPath id="clip0_1_303">
<rect width="24" height="24" fill="white" transform="translate(24) rotate(90)"/>
</clipPath>
</defs>
</svg>
